<svg width="322" height="423" viewBox="0 0 322 423" fill="none" xmlns="http://www.w3.org/2000/svg">
<rect x="61" width="200" height="100" fill="black"/>
<g filter="url(#filter0_ddddd_9_45)">
<path d="M130.033 50.6533H128.511V55.2357H125.31V41.291H130.913C133.574 41.291 135.716 43.4221 135.716 46.0728C135.716 47.7857 134.676 49.3394 133.135 50.1162L136.117 55.2357H132.676L130.034 50.6533H130.033ZM128.511 47.8644H130.911C131.792 47.8644 132.512 47.0876 132.512 46.071C132.512 45.0545 131.792 44.2776 130.911 44.2776H128.511V47.8644Z" fill="url(#paint0_linear_9_45)"/>
<path d="M142.1 52.8456C142.921 52.8456 143.62 52.5272 144.021 52.088L146.422 53.4632C145.441 54.8175 143.96 55.5155 142.06 55.5155C138.637 55.5155 136.516 53.2235 136.516 50.2561C136.516 47.2887 138.678 44.9967 141.84 44.9967C144.761 44.9967 146.923 47.2485 146.923 50.2561C146.923 50.6743 146.882 51.0732 146.803 51.4511H139.699C140.079 52.4869 141 52.8456 142.1 52.8456ZM143.942 49.2203C143.622 48.0638 142.722 47.6457 141.82 47.6457C140.68 47.6457 139.919 48.2038 139.639 49.2203H143.942Z" fill="url(#paint1_linear_9_45)"/>
<path d="M159.393 50.2545C159.393 53.2236 157.231 55.5139 154.61 55.5139C153.269 55.5139 152.289 55.0555 151.628 54.2979V55.234H148.626V41.2893H151.628V46.2093C152.289 45.4517 153.269 44.9933 154.61 44.9933C157.233 44.9933 159.393 47.2853 159.393 50.2527V50.2545ZM156.391 50.2545C156.391 48.7603 155.391 47.8242 154.01 47.8242C152.628 47.8242 151.628 48.7603 151.628 50.2545C151.628 51.7487 152.628 52.6847 154.01 52.6847C155.391 52.6847 156.391 51.7487 156.391 50.2545Z" fill="url(#paint2_linear_9_45)"/>
<path d="M160.593 50.2544C160.593 47.2853 162.955 44.995 165.896 44.995C168.836 44.995 171.198 47.287 171.198 50.2544C171.198 53.2218 168.836 55.5138 165.896 55.5138C162.955 55.5138 160.593 53.2218 160.593 50.2544ZM168.198 50.2544C168.198 48.8407 167.198 47.9029 165.897 47.9029C164.597 47.9029 163.597 48.839 163.597 50.2544C163.597 51.6699 164.597 52.6059 165.897 52.6059C167.198 52.6059 168.198 51.6699 168.198 50.2544Z" fill="url(#paint3_linear_9_45)"/>
<path d="M183.668 50.2545C183.668 53.2236 181.506 55.5139 178.886 55.5139C177.545 55.5139 176.564 55.0555 175.903 54.2979V55.234H172.901V41.2893H175.903V46.2093C176.564 45.4517 177.545 44.9933 178.886 44.9933C181.508 44.9933 183.668 47.2853 183.668 50.2527V50.2545ZM180.666 50.2545C180.666 48.7603 179.666 47.8242 178.285 47.8242C176.903 47.8242 175.903 48.7603 175.903 50.2545C175.903 51.7487 176.903 52.6847 178.285 52.6847C179.666 52.6847 180.666 51.7487 180.666 50.2545Z" fill="url(#paint4_linear_9_45)"/>
<path d="M185.069 42.6049C185.069 41.6286 185.889 40.8115 186.87 40.8115C187.851 40.8115 188.672 41.6286 188.672 42.6049C188.672 43.5812 187.851 44.3983 186.87 44.3983C185.889 44.3983 185.069 43.5812 185.069 42.6049ZM185.369 45.2749H188.371V55.2356H185.369V45.2749Z" fill="url(#paint5_linear_9_45)"/>
<path d="M200.179 49.1189V55.2357H197.177V49.5581C197.177 48.3228 196.397 47.7454 195.435 47.7454C194.335 47.7454 193.574 48.3823 193.574 49.7978V55.2357H190.572V45.2749H193.574V46.211C194.113 45.4744 195.115 44.995 196.435 44.995C198.456 44.995 200.177 46.4297 200.177 49.1189H200.179Z" fill="url(#paint6_linear_9_45)"/>
<path d="M212.506 45.2732V55.2339H209.504V54.2978C208.843 55.0554 207.863 55.5138 206.522 55.5138C203.9 55.5138 201.739 53.2218 201.739 50.2544C201.739 47.287 203.901 44.995 206.522 44.995C207.863 44.995 208.843 45.4534 209.504 46.211V45.2749H212.506V45.2732ZM209.504 50.2544C209.504 48.7602 208.504 47.8241 207.123 47.8241C205.741 47.8241 204.741 48.7602 204.741 50.2544C204.741 51.7486 205.741 52.6847 207.123 52.6847C208.504 52.6847 209.504 51.7486 209.504 50.2544Z" fill="url(#paint7_linear_9_45)"/>
<path d="M224.974 41.2893V55.234H221.972V54.2979C221.311 55.0555 220.331 55.5139 218.99 55.5139C216.367 55.5139 214.207 53.2219 214.207 50.2545C214.207 47.2871 216.369 44.995 218.99 44.995C220.331 44.995 221.311 45.4534 221.972 46.2111V41.291H224.974V41.2893ZM221.972 50.2545C221.972 48.7603 220.972 47.8242 219.59 47.8242C218.209 47.8242 217.209 48.7603 217.209 50.2545C217.209 51.7487 218.209 52.6847 219.59 52.6847C220.972 52.6847 221.972 51.7487 221.972 50.2545Z" fill="url(#paint8_linear_9_45)"/>
<path d="M226.676 50.2544C226.676 47.2853 229.038 44.995 231.978 44.995C234.919 44.995 237.281 47.287 237.281 50.2544C237.281 53.2218 234.919 55.5138 231.978 55.5138C229.038 55.5138 226.676 53.2218 226.676 50.2544ZM234.28 50.2544C234.28 48.8407 233.281 47.9029 231.98 47.9029C230.679 47.9029 229.679 48.839 229.679 50.2544C229.679 51.6699 230.679 52.6059 231.98 52.6059C233.281 52.6059 234.28 51.6699 234.28 50.2544Z" fill="url(#paint9_linear_9_45)"/>
<path d="M244.987 45.0755V48.4628C243.747 48.2633 241.986 48.762 241.986 50.7338V55.2374H238.984V45.2767H241.986V47.0491C242.386 45.7141 243.727 45.0772 244.987 45.0772V45.0755Z" fill="url(#paint10_linear_9_45)"/>
<path d="M130.374 62.103C130.374 62.1817 130.363 62.2622 130.363 62.3427H125.83C125.95 63.4677 126.811 64.2061 127.952 64.2061C128.773 64.2061 129.393 63.8281 129.683 63.2997L130.122 63.5587C129.713 64.2358 128.933 64.6837 127.941 64.6837C126.4 64.6837 125.31 63.5884 125.31 62.0837C125.31 60.579 126.37 59.4838 127.903 59.4838C129.435 59.4838 130.374 60.7382 130.374 62.103ZM125.83 61.8545H129.853C129.743 60.6385 128.883 59.9614 127.903 59.9614C126.762 59.9614 125.931 60.7488 125.83 61.8545Z" fill="url(#paint11_linear_9_45)"/>
<path d="M134.796 64.5733L133.105 62.402L131.414 64.5733H130.804L132.806 62.0136L130.926 59.5938H131.535L133.107 61.6164L134.688 59.5938H135.29L133.418 62.0048L135.409 64.575H134.799L134.796 64.5733Z" fill="url(#paint12_linear_9_45)"/>
<path d="M141.661 62.0837C141.661 63.5587 140.5 64.6837 139.068 64.6837C138.098 64.6837 137.326 64.1851 136.917 63.4187V66.5663H136.416V59.594H136.917V60.7488C137.326 59.9824 138.098 59.4838 139.068 59.4838C140.499 59.4838 141.661 60.6088 141.661 62.0837ZM141.16 62.0837C141.16 60.8992 140.23 59.9614 139.038 59.9614C137.847 59.9614 136.917 60.8975 136.917 62.0837C136.917 63.27 137.847 64.2061 139.038 64.2061C140.23 64.2061 141.16 63.27 141.16 62.0837Z" fill="url(#paint13_linear_9_45)"/>
<path d="M145.043 59.5238V60.0014C144.181 60.0014 143.371 60.5298 143.371 61.8036V64.5733H142.87V59.592H143.371V60.5683C143.71 59.781 144.362 59.522 145.043 59.522V59.5238Z" fill="url(#paint14_linear_9_45)"/>
<path d="M150.477 62.103C150.477 62.1817 150.466 62.2622 150.466 62.3427H145.933C146.053 63.4677 146.914 64.2061 148.055 64.2061C148.875 64.2061 149.496 63.8281 149.786 63.2997L150.227 63.5587C149.816 64.2358 149.035 64.6837 148.046 64.6837C146.505 64.6837 145.415 63.5884 145.415 62.0837C145.415 60.579 146.475 59.4838 148.007 59.4838C149.54 59.4838 150.478 60.7382 150.478 62.103H150.477ZM145.933 61.8545H149.954C149.845 60.6385 148.984 59.9614 148.004 59.9614C146.863 59.9614 146.034 60.7488 145.933 61.8545Z" fill="url(#paint15_linear_9_45)"/>
<path d="M154.82 63.2699C154.82 64.087 154.099 64.6836 153.029 64.6836C152.028 64.6836 151.368 64.2147 151.127 63.5779L151.558 63.3294C151.737 63.8666 152.278 64.206 153.029 64.206C153.728 64.206 154.319 63.898 154.319 63.2699C154.319 61.9157 151.287 62.6925 151.287 60.8991C151.287 60.1118 151.967 59.4855 152.988 59.4855C153.798 59.4855 154.419 59.8739 154.69 60.481L154.269 60.7207C154.059 60.2028 153.538 59.9631 152.988 59.9631C152.338 59.9631 151.788 60.3025 151.788 60.8991C151.788 62.2341 154.82 61.4468 154.82 63.2699Z" fill="url(#paint16_linear_9_45)"/>
<path d="M159.103 63.2699C159.103 64.087 158.382 64.6836 157.312 64.6836C156.312 64.6836 155.651 64.2147 155.41 63.5779L155.841 63.3294C156.02 63.8666 156.561 64.206 157.312 64.206C158.011 64.206 158.602 63.898 158.602 63.2699C158.602 61.9157 155.57 62.6925 155.57 60.8991C155.57 60.1118 156.25 59.4855 157.272 59.4855C158.082 59.4855 158.702 59.8739 158.973 60.481L158.553 60.7207C158.342 60.2028 157.822 59.9631 157.272 59.9631C156.621 59.9631 156.071 60.3025 156.071 60.8991C156.071 62.2341 159.103 61.4468 159.103 63.2699Z" fill="url(#paint17_linear_9_45)"/>
<path d="M117.367 54.6056C117.667 53.2125 117.82 51.7769 117.82 50.3192C117.82 48.8615 117.652 47.2882 117.325 45.8324L116.011 46.1831C116.202 47.0338 116.336 47.9058 116.407 48.7941H111.192C111.026 47.3855 110.645 46.0424 110.082 44.7967L114.625 42.1848C114.98 42.9237 115.288 43.6897 115.545 44.4778L116.859 44.1271C115.97 41.3475 114.478 38.7809 112.451 36.5852L111.488 37.5438C112.066 38.1749 112.601 38.8435 113.089 39.5469L108.523 42.1723C107.69 41.073 106.696 40.0989 105.576 39.2906L108.232 34.7093C108.918 35.1824 109.571 35.6978 110.187 36.2538L111.151 35.2942C108.961 33.3046 106.405 31.8383 103.641 30.9606L103.285 32.268C104.075 32.5223 104.841 32.8287 105.581 33.1804L102.91 37.7837C101.669 37.2557 100.337 36.9031 98.9423 36.7577V31.4076C99.7793 31.4741 100.602 31.5955 101.405 31.766L101.76 30.4605C100.346 30.1561 98.891 30 97.4102 30C95.9295 30 94.5385 30.1493 93.1546 30.4403L93.507 31.7458C94.2812 31.5839 95.0727 31.4702 95.879 31.4066V36.7779C94.4959 36.9398 93.1748 37.3059 91.9467 37.8464L89.2399 33.1804C90.0062 32.8162 90.8019 32.5011 91.6216 32.24L91.2692 30.9326C88.4703 31.8074 85.8845 33.2825 83.6701 35.2942L84.6341 36.2538C85.2506 35.6978 85.9038 35.1814 86.589 34.7093L89.2989 39.3821C88.2063 40.1914 87.2375 41.1558 86.4245 42.2435L81.7306 39.5459C82.2175 38.8464 82.7507 38.1797 83.3246 37.5515L82.3617 36.5929C80.3718 38.7501 78.8988 41.2666 78.0065 43.9884L79.3208 44.3429C79.5676 43.602 79.8608 42.8804 80.1947 42.1838L84.8818 44.8786C84.3399 46.1012 83.9711 47.4163 83.8085 48.7931H78.413C78.4846 47.9 78.6182 47.0242 78.8117 46.1696L77.4994 45.816C77.1694 47.2766 77 48.7844 77 50.3182C77 51.8521 77.1568 53.2452 77.4636 54.6538L78.7759 54.3031C78.6017 53.5015 78.4807 52.6797 78.414 51.8434H83.7892C83.9353 53.2317 84.2895 54.5584 84.8199 55.7936L80.1957 58.4527C79.8192 57.6675 79.496 56.8524 79.2298 56.0123L77.9165 56.3629C78.7914 59.1762 80.2819 61.7746 82.3191 63.9973L83.283 63.0377C82.7246 62.424 82.2058 61.7737 81.7316 61.0916L86.3335 58.4469C87.1453 59.5625 88.1229 60.552 89.2281 61.3806L86.591 65.9271C85.8845 65.4406 85.2118 64.9068 84.5799 64.3326L83.6169 65.2912C85.7974 67.2875 88.3419 68.7595 91.097 69.6481L91.4541 68.3404C90.6945 68.091 89.9561 67.7951 89.2416 67.456L91.8654 62.9327C93.1171 63.4934 94.466 63.873 95.8811 64.0378V69.2298C95.013 69.1606 94.1621 69.0345 93.3297 68.8521L92.9748 70.1577C94.4155 70.4746 95.9013 70.6364 97.4119 70.6364C98.923 70.6364 100.407 70.4737 101.847 70.1586L101.496 68.8521C100.665 69.0332 99.8122 69.1606 98.944 69.2298V64.058C100.37 63.9097 101.732 63.5445 102.996 62.9963L105.583 67.456C104.871 67.7943 104.134 68.0902 103.377 68.3387L103.729 69.6481C106.479 68.7608 109.022 67.2905 111.2 65.299L110.237 64.3403C109.606 64.9116 108.937 65.4425 108.233 65.9271L105.65 61.4721C106.782 60.6436 107.785 59.6454 108.617 58.5182L113.092 61.0896C112.617 61.7727 112.1 62.423 111.541 63.0358L112.505 63.9954C114.524 61.792 116.005 59.2196 116.884 56.4362L115.571 56.0816C115.309 56.8967 114.993 57.6877 114.627 58.4507L110.147 55.8755C110.698 54.6172 111.066 53.2616 111.214 51.8414H116.409C116.343 52.6594 116.225 53.4639 116.059 54.2501L117.369 54.6037L117.367 54.6056ZM97.4111 59.1993C92.4839 59.1993 88.4909 55.2241 88.4909 50.3192C88.4909 45.4143 92.4839 41.4391 97.4111 41.4391C102.338 41.4391 106.331 45.4143 106.331 50.3192C106.331 55.2241 102.338 59.1993 97.4111 59.1993Z" fill="url(#paint18_linear_9_45)"/>
</g>
<defs>
<filter id="filter0_ddddd_9_45" x="0" y="17" width="321.987" height="405.636" filterUnits="userSpaceOnUse" color-interpolation-filters="sRGB">
<feFlood flood-opacity="0" result="BackgroundImageFix"/>
<feColorMatrix in="SourceAlpha" type="matrix" values="0 0 0 0 0 0 0 0 0 0 0 0 0 0 0 0 0 0 127 0" result="hardAlpha"/>
<feOffset dy="11"/>
<feGaussianBlur stdDeviation="12"/>
<feColorMatrix type="matrix" values="0 0 0 0 0 0 0 0 0 0 0 0 0 0 0 0 0 0 0.37 0"/>
<feBlend mode="normal" in2="BackgroundImageFix" result="effect1_dropShadow_9_45"/>
<feColorMatrix in="SourceAlpha" type="matrix" values="0 0 0 0 0 0 0 0 0 0 0 0 0 0 0 0 0 0 127 0" result="hardAlpha"/>
<feOffset dy="44"/>
<feGaussianBlur stdDeviation="22"/>
<feColorMatrix type="matrix" values="0 0 0 0 0 0 0 0 0 0 0 0 0 0 0 0 0 0 0.32 0"/>
<feBlend mode="normal" in2="effect1_dropShadow_9_45" result="effect2_dropShadow_9_45"/>
<feColorMatrix in="SourceAlpha" type="matrix" values="0 0 0 0 0 0 0 0 0 0 0 0 0 0 0 0 0 0 127 0" result="hardAlpha"/>
<feOffset dy="99"/>
<feGaussianBlur stdDeviation="29.5"/>
<feColorMatrix type="matrix" values="0 0 0 0 0 0 0 0 0 0 0 0 0 0 0 0 0 0 0.19 0"/>
<feBlend mode="normal" in2="effect2_dropShadow_9_45" result="effect3_dropShadow_9_45"/>
<feColorMatrix in="SourceAlpha" type="matrix" values="0 0 0 0 0 0 0 0 0 0 0 0 0 0 0 0 0 0 127 0" result="hardAlpha"/>
<feOffset dy="176"/>
<feGaussianBlur stdDeviation="35"/>
<feColorMatrix type="matrix" values="0 0 0 0 0 0 0 0 0 0 0 0 0 0 0 0 0 0 0.06 0"/>
<feBlend mode="normal" in2="effect3_dropShadow_9_45" result="effect4_dropShadow_9_45"/>
<feColorMatrix in="SourceAlpha" type="matrix" values="0 0 0 0 0 0 0 0 0 0 0 0 0 0 0 0 0 0 127 0" result="hardAlpha"/>
<feOffset dy="275"/>
<feGaussianBlur stdDeviation="38.5"/>
<feColorMatrix type="matrix" values="0 0 0 0 0 0 0 0 0 0 0 0 0 0 0 0 0 0 0.01 0"/>
<feBlend mode="normal" in2="effect4_dropShadow_9_45" result="effect5_dropShadow_9_45"/>
<feBlend mode="normal" in="SourceGraphic" in2="effect5_dropShadow_9_45" result="shape"/>
</filter>
<linearGradient id="paint0_linear_9_45" x1="125.31" y1="48.2633" x2="136.117" y2="48.2633" gradientUnits="userSpaceOnUse">
<stop stop-color="#FF7107"/>
<stop offset="1" stop-color="#E57304"/>
</linearGradient>
<linearGradient id="paint1_linear_9_45" x1="136.518" y1="50.2544" x2="146.924" y2="50.2544" gradientUnits="userSpaceOnUse">
<stop stop-color="#FF7107"/>
<stop offset="1" stop-color="#E57304"/>
</linearGradient>
<linearGradient id="paint2_linear_9_45" x1="148.626" y1="48.4016" x2="159.393" y2="48.4016" gradientUnits="userSpaceOnUse">
<stop stop-color="#FF7107"/>
<stop offset="1" stop-color="#E57304"/>
</linearGradient>
<linearGradient id="paint3_linear_9_45" x1="160.593" y1="50.2544" x2="171.2" y2="50.2544" gradientUnits="userSpaceOnUse">
<stop stop-color="#FF7107"/>
<stop offset="1" stop-color="#E57304"/>
</linearGradient>
<linearGradient id="paint4_linear_9_45" x1="172.901" y1="48.4016" x2="183.668" y2="48.4016" gradientUnits="userSpaceOnUse">
<stop stop-color="#FF7107"/>
<stop offset="1" stop-color="#E57304"/>
</linearGradient>
<linearGradient id="paint5_linear_9_45" x1="185.069" y1="48.0235" x2="188.67" y2="48.0235" gradientUnits="userSpaceOnUse">
<stop stop-color="#FF7107"/>
<stop offset="1" stop-color="#E57304"/>
</linearGradient>
<linearGradient id="paint6_linear_9_45" x1="190.572" y1="50.1162" x2="200.179" y2="50.1162" gradientUnits="userSpaceOnUse">
<stop stop-color="#FF7107"/>
<stop offset="1" stop-color="#E57304"/>
</linearGradient>
<linearGradient id="paint7_linear_9_45" x1="201.739" y1="50.2544" x2="212.506" y2="50.2544" gradientUnits="userSpaceOnUse">
<stop stop-color="#FF7107"/>
<stop offset="1" stop-color="#E57304"/>
</linearGradient>
<linearGradient id="paint8_linear_9_45" x1="214.207" y1="48.4016" x2="224.974" y2="48.4016" gradientUnits="userSpaceOnUse">
<stop stop-color="#FF7107"/>
<stop offset="1" stop-color="#E57304"/>
</linearGradient>
<linearGradient id="paint9_linear_9_45" x1="226.676" y1="50.2544" x2="237.281" y2="50.2544" gradientUnits="userSpaceOnUse">
<stop stop-color="#FF7107"/>
<stop offset="1" stop-color="#E57304"/>
</linearGradient>
<linearGradient id="paint10_linear_9_45" x1="238.984" y1="50.1547" x2="244.987" y2="50.1547" gradientUnits="userSpaceOnUse">
<stop stop-color="#FF7107"/>
<stop offset="1" stop-color="#E57304"/>
</linearGradient>
<linearGradient id="paint11_linear_9_45" x1="125.31" y1="62.0837" x2="130.374" y2="62.0837" gradientUnits="userSpaceOnUse">
<stop stop-color="#FF7107"/>
<stop offset="1" stop-color="#E57304"/>
</linearGradient>
<linearGradient id="paint12_linear_9_45" x1="130.804" y1="62.0835" x2="135.406" y2="62.0835" gradientUnits="userSpaceOnUse">
<stop stop-color="#FF7107"/>
<stop offset="1" stop-color="#E57304"/>
</linearGradient>
<linearGradient id="paint13_linear_9_45" x1="136.418" y1="63.025" x2="141.661" y2="63.025" gradientUnits="userSpaceOnUse">
<stop stop-color="#FF7107"/>
<stop offset="1" stop-color="#E57304"/>
</linearGradient>
<linearGradient id="paint14_linear_9_45" x1="142.872" y1="62.0485" x2="145.043" y2="62.0485" gradientUnits="userSpaceOnUse">
<stop stop-color="#FF7107"/>
<stop offset="1" stop-color="#E57304"/>
</linearGradient>
<linearGradient id="paint15_linear_9_45" x1="145.413" y1="62.0837" x2="150.477" y2="62.0837" gradientUnits="userSpaceOnUse">
<stop stop-color="#FF7107"/>
<stop offset="1" stop-color="#E57304"/>
</linearGradient>
<linearGradient id="paint16_linear_9_45" x1="151.127" y1="62.0837" x2="154.82" y2="62.0837" gradientUnits="userSpaceOnUse">
<stop stop-color="#FF7107"/>
<stop offset="1" stop-color="#E57304"/>
</linearGradient>
<linearGradient id="paint17_linear_9_45" x1="155.41" y1="62.0837" x2="159.103" y2="62.0837" gradientUnits="userSpaceOnUse">
<stop stop-color="#FF7107"/>
<stop offset="1" stop-color="#E57304"/>
</linearGradient>
<linearGradient id="paint18_linear_9_45" x1="77.0019" y1="50.3182" x2="117.82" y2="50.3182" gradientUnits="userSpaceOnUse">
<stop stop-color="#FF7107"/>
<stop offset="1" stop-color="#E57304"/>
</linearGradient>
</defs>
</svg>
